<?xml version="1.0" encoding="UTF-8"?>
<svg id="Layer_1" xmlns="http://www.w3.org/2000/svg" viewBox="0 0 378.36 303.68">
  <defs>
    <style>
      .cls-1, .cls-2 {
        fill: #e5e5e5;
      }

      .cls-2, .cls-3, .cls-4 {
        stroke: #e5e5e5;
      }

      .cls-2, .cls-5 {
        stroke-miterlimit: 10;
      }

      .cls-6, .cls-3, .cls-4 {
        stroke-linecap: round;
        stroke-linejoin: round;
      }

      .cls-6, .cls-3, .cls-5 {
        fill: none;
        stroke-width: 13px;
      }

      .cls-6, .cls-5 {
        stroke: #5bcbfa;
      }

      .cls-7, .cls-4 {
        fill: #62a8ff;
      }

      .cls-4 {
        stroke-width: 8px;
      }
    </style>
  </defs>
  <path class="cls-4" d="M289.07,53.21l66.1-18.73c11.65-3.3,22.24,7.81,18.38,19.29l-55.86,166.04"/>
  <path class="cls-1" d="M337.99,64.76c-4.02,24.55-12.35,73.92-16.62,98.42-.05.27-.31.46-.58.41-.25-.04-.43-.27-.42-.52,1.44-24.83,3.98-74.8,5.05-99.64.81-8.81,13.6-7.5,12.56,1.33h0Z"/>
  <path class="cls-1" d="M357.02,81.57l-33.59,97.59c-.09.26-.38.4-.64.31-.24-.08-.38-.34-.33-.58l22.4-100.75c2.28-8.52,14.65-5.08,12.15,3.43h0Z"/>
  <line class="cls-3" x1="331.82" y1="62.51" x2="294.43" y2="71.36"/>
  <line class="cls-3" x1="350.41" y1="79.35" x2="331.72" y2="83.78"/>
  <g id="Front_folder">
    <path class="cls-7" d="M318.55,211.31l-34.82-179.07-3.13-16.1c-.84-4.3-3.41-7.79-6.83-9.91-5.47-3.39-11.01-1.97-11.91-1.72-48.69,13.37-97.39,26.74-146.08,40.11-3.74.97-6.51,3.35-6.3,7.55,1.72,8.86,3.45,17.73,5.17,26.59.74,3.84-.04,7.65-1.96,10.76-2.53,4.12-6.65,5.88-8.71,6.59-31.1,8.79-62.21,17.58-93.31,26.38-3.92,1.11-7.38,7-6.55,10.74,19.22,86.31,27.09,117.15,35.77,154.79,1.93,8.37,10.48,13.42,18.74,11.09l124.69-35.25c-2.44.08-4.9.12-7.37.12-66.65,0-120.68-27.71-120.68-61.9s54.03-61.9,120.68-61.9,120.68,27.71,120.68,61.9c0,13.51-8.44,26-22.76,36.18l34-9.61c7.53-2.12,12.17-9.66,10.67-17.34Z"/>
    <path class="cls-1" d="M314.62,212.07s-36.82-189.37-36.82-189.37c0,0-1.15-5.89-1.15-5.89-.82-4.38-4.56-8-8.95-8.66-1.45-.25-3.05-.19-4.45.12,0,0-5.65,1.54-5.65,1.54-28.59,7.8-75.99,20.89-104.67,28.73-7.77,2.13-27.39,7.52-34.89,9.58-1.55.48-3.78.83-4.4,2.48-.13.34-.21.78-.18,1.35,0,0-.07-.56-.07-.56.98,5.06,3.3,16.93,4.23,21.75,0,0,.71,3.63.71,3.63,2.51,9.76-2.99,19.67-12.51,22.91-20.92,6.05-67.54,19.1-88.24,25,0,0-3.56,1.01-3.56,1.01l-1.78.5-.44.13c-.13.04-.11.05-.17.07-1.94.76-4.25,4.39-3.47,6.69,11.26,51.01,23.37,102.03,35.34,152.89.38,2.04,1.01,3.62,2.16,5.26,2.57,3.46,7.24,5.22,11.43,4.13.23-.05.41-.08.74-.18,0,0,3.55-1,3.55-1,0,0,7.11-2.01,7.11-2.01l113.72-32.15s1.21,7.85,1.22,7.84c-10.47-.53-20.84-1.4-31.14-2.76-30.36-4.48-62.81-12.14-85.41-34.32-17.17-17.21-17.58-39.33-.67-56.92,21.51-22.03,55.55-31.1,85.29-34.64,42.46-4.62,101.35,1.59,133.95,31.55,18.82,17.93,21.13,40.54,3.09,60.13-3.76,4.04-7.99,7.5-12.43,10.53,0,0-3.32-6.93-3.32-6.93,10.37-3.04,20.8-5.99,31.21-8.93,0,0,1.74-.49,1.74-.49,0,0,.87-.25.87-.25,5.48-1.38,9.16-7.22,8-12.77h0ZM322.47,210.54c2,9.48-4.27,19.61-13.68,22,0,0-.87.25-.87.25,0,0-1.73.49-1.73.49-10.41,2.94-20.83,5.9-31.26,8.73-4.25,1.08-6.73-4.41-3.32-6.93,14.41-10.67,25.46-26.17,18.6-44.49-6.05-14.74-20.39-24.3-34.24-31.25-43.96-20.75-102.81-21.8-148.61-6.13-25.94,8.68-61.96,31.73-47.05,63.43,6.88,13.56,20.17,22.53,33.6,29.05,27.58,12.97,59.06,17.44,89.27,14.17,4.8-.5,6.19,6.36,1.54,7.75-.23.32-113.78,31.98-114.06,32.25,0,0-7.11,2.01-7.11,2.01-2.12.57-5.74,1.76-8.07,1.78-8.28.51-16.35-4.94-18.97-12.81-.57-1.87-2.02-8.22-2.49-10.26C22.72,232.74,11.4,184.63.77,136.62c-.24-1.26-.81-3.12-.77-4.42.14-5.96,3.91-11.69,9.63-13.57,0,0,.44-.13.44-.13l1.77-.5s3.55-1,3.55-1c18.89-5.33,65.88-18.63,85.19-24.09,5.9-1.25,10.47-5.28,10.32-11.6-.08-1.86-.8-4.68-1.14-6.63-.96-4.91-3.26-16.77-4.23-21.75-.48-3.18.86-6.99,3.34-9.15,2.09-1.92,4.52-2.71,7.1-3.38,21.06-5.79,59.97-16.46,81.37-22.34,7.99-2.13,50.9-14.02,58.12-15.96,0,0,5.98-1.63,5.98-1.63,4.99-1.13,10.32-.27,14.63,2.49,4.3,2.72,7.43,7.27,8.4,12.25,0,0,1.16,5.95,1.16,5.95,0,0,36.82,189.37,36.82,189.37h0Z"/>
  </g>
  <path class="cls-1" d="M114.73,168.15c11.44,47.28,65.82,79.75,113.17,79.84,16.89-.1,33.89-4.9,47.22-15.57,1.69-1.36,4.18-1.09,5.53.61,1.27,1.6,1.08,3.9-.36,5.28-20.97,20.15-52.17,25.6-80.2,21.64-47.69-6.87-95.94-37.21-111.48-84.95-2.23-7.13,1.74-14.71,8.87-16.94,7.54-2.4,15.64,2.34,17.26,10.08h0Z"/>
  <path class="cls-2" d="M78.25,117.73c-2.38-2.22-6.27-.92-6.83,2.29l-10.58,61.28c-.95,3.84,2.59,7.29,6.41,6.25l57.34-15.69c3.59-.98,5.01-5.32,2.69-8.23l-49.04-45.89Z"/>
  <g>
    <path class="cls-5" d="M237.01,78.3c4.22,17.45-3.9,35.93-19.69,41.85-17.81,6.68-38.28-4.85-43.53-26.58s7.7-41.33,26.59-43.52c11.31-1.31,22.06,4.03,29.08,12.77,3.48,4.33,6.12,9.58,7.55,15.47Z"/>
    <polyline class="cls-6" points="239.52 45.52 211.1 94.4 193.24 83.94"/>
  </g>
  <g>
    <path class="cls-5" d="M266.56,175.48c4.22,17.45-3.9,35.93-19.69,41.85-17.81,6.68-38.28-4.85-43.53-26.58-5.25-21.73,7.7-41.33,26.59-43.52,11.31-1.31,22.06,4.03,29.08,12.77,3.48,4.33,6.12,9.58,7.55,15.47Z"/>
    <polyline class="cls-6" points="269.08 142.69 240.65 191.58 222.8 181.12"/>
  </g>
</svg>